# xmcd
#
# Track frame offsets:
#	150
#	18000
#	39161
#	53861
#	72722
#	91922
#	108747
#	129115
#	153853
#	172303
#	190903
#	206931
#	233944
#	265236
#
# Disc length: 3631 seconds
#
# Revision: 1
# Processed by: cddbd v1.5.2PL0 Copyright (c) Steve Scherf et al.
# Submitted via: audiograbber 1.83.01
#
DISCID=c20e2d0e
DTITLE=Blues Wire - 2007 Take My Hand To The Sky
DYEAR=2007
DGENRE=Blues
TTITLE0=Steady Gig (from Steady Gig)
TTITLE1=Because Of You (from Who's Calling)
TTITLE2=Meanthing (from Bulldog Boogie)
TTITLE3=Bulldog Boogie (Unreleased Version)
TTITLE4=Keep Blues Alive (Unreleased Original Demo Recording)
TTITLE5=Love Me (Unreleased Vocal Version)
TTITLE6=There Is Love (Unreleased)
TTITLE7=Circus Of Fools (Unreleased Demo Recording)
TTITLE8=Fat Meets Bones (from Who's Calling)
TTITLE9=Chicago Blues (Unreleased)
TTITLE10=Blinded (Live) (Unreleased from Pararlama)
TTITLE11=Life On The Road (Live) (from DVD Two Shows)
TTITLE12=Wishbone (Unreleased Edited Version feat The Original Demo Synth Guita
TTITLE12=r Solo)
TTITLE13=Goodbye Now Blues (Unreleased)
EXTD=
EXTT0=
EXTT1=
EXTT2=
EXTT3=
EXTT4=
EXTT5=
EXTT6=
EXTT7=
EXTT8=
EXTT9=
EXTT10=
EXTT11=
EXTT12=
EXTT13=
PLAYORDER=
